<svg xmlns="http://www.w3.org/2000/svg" xmlns:xlink="http://www.w3.org/1999/xlink" width="2000" zoomAndPan="magnify" viewBox="0 0 1500 3749.999967" height="5000" preserveAspectRatio="xMidYMid meet" version="1.0"><path fill="#2b2416" d="M 637.253906 3686.414062 L 679.648438 3665.21875 L 718.371094 3658.777344 C 729.128906 3656.984375 737.527344 3667.824219 733.042969 3677.773438 C 723.75 3698.558594 711.441406 3724.808594 711.441406 3718.207031 C 711.441406 3707.609375 669.046875 3750 669.046875 3750 L 637.253906 3729.539062 Z M 637.253906 3686.414062 " fill-opacity="1" fill-rule="nonzero"/><path fill="#2b2416" d="M 827.933594 3464.023438 L 838.53125 3485.21875 L 838.53125 3534.375 C 838.53125 3534.375 886.957031 3551.738281 883.941406 3534.375 C 880.925781 3517.011719 884.101562 3503.070312 884.101562 3503.070312 L 870.324219 3485.21875 L 855.976562 3464.023438 C 856.058594 3464.023438 838.53125 3442.824219 827.933594 3464.023438 Z M 827.933594 3464.023438 " fill-opacity="1" fill-rule="nonzero"/><path fill="#2b2416" d="M 743.234375 2971.386719 L 722.039062 2997.878906 L 722.039062 3073.53125 C 722.039062 3073.53125 616.140625 3111.359375 637.253906 3155.21875 L 653.152344 3184.726562 L 653.152344 3230.136719 C 653.152344 3230.136719 711.441406 3336.847656 785.542969 3283.859375 C 785.542969 3283.859375 831.113281 3227.851562 855.976562 3234.699219 C 855.976562 3234.699219 924.78125 3219.210938 897.554688 3135 L 884.101562 3121.222656 L 856.058594 3080.378906 L 849.210938 3019.074219 C 849.128906 3019.074219 806.738281 2955.488281 743.234375 2971.386719 Z M 743.234375 2971.386719 " fill-opacity="1" fill-rule="nonzero"/><path fill="#2b2416" d="M 965.707031 2415.246094 L 903.996094 2435.707031 C 903.996094 2435.707031 817.417969 2500.027344 806.820312 2489.429688 C 806.820312 2489.429688 711.519531 2542.417969 817.417969 2605.925781 C 923.316406 2669.511719 955.109375 2563.53125 955.109375 2563.53125 L 955.109375 2468.234375 L 976.304688 2457.636719 Z M 965.707031 2415.246094 " fill-opacity="1" fill-rule="nonzero"/><path fill="#2b2416" d="M 637.253906 2192.773438 L 573.667969 2235.164062 C 573.667969 2235.164062 531.277344 2383.453125 637.253906 2415.246094 C 637.253906 2415.246094 711.441406 2394.050781 753.75 2362.253906 C 796.140625 2330.460938 817.335938 2319.863281 817.335938 2319.863281 L 817.335938 2242.664062 L 785.542969 2224.484375 L 753.75 2213.886719 L 724.972656 2192.691406 L 637.253906 2192.691406 Z M 637.253906 2192.773438 " fill-opacity="1" fill-rule="nonzero"/><path fill="#2b2416" d="M 838.53125 1896.195312 L 817.335938 1924.972656 L 817.335938 1956.765625 L 796.140625 1980.976562 L 796.140625 2081.65625 C 796.140625 2081.65625 799.074219 2148.996094 871.792969 2118.015625 L 880.921875 2086.957031 L 902.121094 2076.359375 L 933.914062 2055.164062 L 955.109375 2033.96875 C 955.109375 2033.96875 965.707031 1952.28125 955.109375 1929.539062 L 912.71875 1917.390625 L 877.988281 1915.84375 Z M 838.53125 1896.195312 " fill-opacity="1" fill-rule="nonzero"/><path fill="#2b2416" d="M 573.75 1991.496094 L 538.941406 2011.140625 L 520.761719 2033.886719 L 520.761719 2074.726562 L 510.164062 2086.875 L 529.808594 2126.085938 L 552.554688 2150.460938 L 573.75 2170.109375 L 605.542969 2160.976562 L 622.90625 2126.085938 L 622.90625 2080.84375 L 643.371094 2080.84375 L 653.152344 2038.449219 L 643.371094 2011.140625 L 627.472656 1991.496094 Z M 573.75 1991.496094 " fill-opacity="1" fill-rule="nonzero"/><path fill="#2b2416" d="M 581.65625 1811.414062 L 518.476562 1811.414062 L 510.164062 1838.640625 L 510.164062 1865.949219 L 520.761719 1880.300781 L 520.761719 1917.390625 L 532.09375 1917.390625 L 565.351562 1940.871094 L 565.351562 1954.484375 L 602.445312 1954.484375 L 637.253906 1938.585938 L 653.152344 1911.359375 L 653.152344 1882.90625 L 637.253906 1853.804688 L 626.65625 1843.207031 L 618.34375 1811.414062 Z M 581.65625 1811.414062 " fill-opacity="1" fill-rule="nonzero"/><path fill="#2b2416" d="M 877.988281 1677.472656 L 817.335938 1677.472656 C 817.335938 1677.472656 732.554688 1726.628906 753.75 1779.621094 C 774.945312 1832.609375 767.28125 1811.414062 767.28125 1811.414062 L 785.460938 1853.804688 L 796.058594 1868.152344 L 877.824219 1880.300781 L 901.957031 1853.804688 L 986.738281 1832.609375 L 1004.101562 1811.414062 L 1011.277344 1785.082031 C 1014.621094 1772.691406 1003.941406 1761.03125 991.304688 1763.234375 L 976.140625 1765.925781 L 944.347656 1758.34375 L 913.289062 1778.804688 L 901.957031 1758.34375 L 884.347656 1745.460938 L 884.347656 1720.515625 L 877.828125 1693.289062 L 877.828125 1677.472656 Z M 877.988281 1677.472656 " fill-opacity="1" fill-rule="nonzero"/><path fill="#2b2416" d="M 600.246094 1778.886719 L 636.601562 1778.886719 L 653.234375 1756.957031 L 669.128906 1737.308594 L 691.46875 1720.679688 L 691.46875 1520.953125 L 677.527344 1520.953125 L 679.808594 1461.929688 L 691.546875 1450.597656 L 711.601562 1419.539062 L 711.601562 1382.445312 L 691.546875 1348.371094 L 691.546875 1318.859375 C 691.546875 1318.859375 611.738281 1292.363281 614.023438 1318.859375 L 605.707031 1334.753906 L 565.515625 1361.984375 L 552.71875 1387.746094 L 520.925781 1419.539062 L 510.324219 1441.46875 L 510.324219 1484.59375 L 520.925781 1514.835938 L 510.324219 1557.226562 L 520.925781 1589.023438 L 510.324219 1632.148438 L 510.324219 1722.960938 L 531.523438 1747.90625 L 542.121094 1769.101562 Z M 600.246094 1778.886719 " fill-opacity="1" fill-rule="nonzero"/><path fill="#2b2416" d="M 877.988281 1495.925781 L 843.097656 1495.925781 L 827.933594 1514.835938 L 827.933594 1570.84375 L 817.335938 1593.503906 L 817.335938 1616.25 L 838.53125 1641.929688 L 871.792969 1659.375 L 891.523438 1631.332031 L 912.71875 1610.136719 L 912.71875 1516.304688 L 891.523438 1514.835938 L 895.273438 1495.925781 Z M 877.988281 1495.925781 " fill-opacity="1" fill-rule="nonzero"/><path fill="#2b2416" d="M 637.253906 1175.871094 L 610.84375 1203.097656 L 610.84375 1223.476562 L 637.253906 1237.175781 L 690.246094 1239.375 L 711.441406 1207.664062 L 711.441406 1189.484375 L 686.496094 1175.871094 Z M 637.253906 1175.871094 " fill-opacity="1" fill-rule="nonzero"/><path fill="#2b2416" d="M 877.988281 1096.386719 L 859.726562 1112.28125 L 838.53125 1154.675781 L 838.53125 1216.710938 L 858.261719 1230.324219 L 858.261719 1250.789062 L 817.335938 1271.167969 L 817.335938 1393.777344 L 827.933594 1419.457031 L 847.664062 1445.949219 L 881.25 1475.460938 L 927.066406 1475.460938 L 959.753906 1443.667969 L 986.902344 1398.34375 L 1012.011719 1364.265625 L 1022.445312 1307.121094 L 1012.011719 1248.503906 L 986.902344 1228.777344 L 959.753906 1207.664062 L 947.527344 1175.871094 L 919.890625 1164.539062 L 912.71875 1137.226562 L 912.71875 1112.28125 Z M 877.988281 1096.386719 " fill-opacity="1" fill-rule="nonzero"/><path fill="#2b2416" d="M 880.925781 836.902344 L 859.726562 847.417969 L 838.53125 879.210938 L 817.335938 896.65625 L 796.222656 942.800781 L 817.335938 955.679688 L 838.53125 978.34375 L 880.925781 994.238281 L 880.925781 1012.417969 L 902.121094 1027.582031 L 942.960938 1027.582031 L 955.109375 995.789062 L 986.902344 985.191406 L 997.417969 963.996094 L 997.417969 921.601562 L 986.902344 900.40625 L 955.109375 889.808594 L 919.890625 867.148438 Z M 880.925781 836.902344 " fill-opacity="1" fill-rule="nonzero"/><path fill="#2b2416" d="M 647.851562 614.429688 L 610.84375 637.824219 L 610.84375 685.515625 L 594.945312 709.726562 L 594.945312 771.765625 L 573.75 794.511719 L 554.835938 836.902344 L 552.554688 868.613281 L 573.75 911.003906 L 600.246094 911.003906 L 600.246094 951.113281 L 584.347656 995.789062 L 568.449219 1027.582031 L 563.152344 1069.890625 L 573.75 1133.476562 L 600.246094 1133.476562 L 637.253906 1144.074219 L 679.648438 1144.074219 L 743.234375 1080.488281 L 775.027344 1069.890625 L 796.222656 1046.496094 L 796.222656 991.957031 L 764.429688 953.398438 L 745.515625 932.203125 L 727.335938 932.203125 L 732.636719 889.808594 L 743.234375 858.015625 L 729.621094 836.902344 L 743.234375 794.511719 L 732.636719 762.71875 L 711.441406 730.925781 L 700.84375 699.128906 L 700.84375 667.335938 L 674.347656 662.851562 L 674.347656 635.625 Z M 647.851562 614.429688 " fill-opacity="1" fill-rule="nonzero"/><path fill="#2b2416" d="M 488.96875 497.851562 L 478.371094 466.058594 L 510.164062 434.265625 L 541.957031 391.875 L 563.886719 391.875 L 573.75 423.667969 L 573.75 444.863281 L 552.554688 474.375 L 538.941406 497.851562 L 526.058594 510.734375 L 503.152344 522.472656 C 496.710938 525.816406 488.96875 521.085938 488.96875 513.832031 Z M 488.96875 497.851562 " fill-opacity="1" fill-rule="nonzero"/><path fill="#2b2416" d="M 753.832031 360.164062 L 785.625 317.773438 L 817.417969 279.210938 L 838.613281 243.667969 L 859.808594 233.070312 L 870.40625 201.277344 L 838.613281 169.484375 L 830.871094 163.941406 C 822.878906 158.234375 812.121094 158.558594 804.539062 164.753906 L 785.625 180.082031 L 753.832031 174.78125 L 732.636719 190.679688 L 700.84375 190.679688 L 674.347656 195.246094 L 674.347656 224.753906 L 653.152344 242.933594 L 647.851562 275.460938 L 637.253906 307.253906 L 626.65625 339.050781 L 626.65625 457.746094 L 653.152344 457.746094 C 653.152344 457.746094 658.449219 476.738281 674.347656 492.636719 C 690.246094 508.53125 693.261719 523.53125 693.261719 523.53125 L 700.84375 561.441406 L 711.441406 626.496094 L 748.53125 662.851562 L 764.429688 699.210938 L 775.027344 741.601562 L 796.222656 778.695312 L 838.613281 815.789062 L 870.40625 815.789062 L 919.972656 769.648438 L 955.191406 741.683594 L 955.191406 653.886719 L 933.996094 625.109375 L 904.484375 614.511719 L 881.003906 582.71875 L 870.40625 550.925781 L 872.691406 523.613281 L 884.023438 485.136719 L 856.792969 457.828125 L 829.566406 457.828125 L 817.417969 440.460938 L 790.925781 429.128906 L 775.027344 402.636719 L 761.414062 392.039062 Z M 753.832031 360.164062 " fill-opacity="1" fill-rule="nonzero"/><path fill="#2b2416" d="M 552.554688 111.195312 L 573.75 129.375 L 604.808594 154.320312 L 636.601562 154.320312 L 679.726562 95.300781 L 679.726562 77.121094 L 677.039062 53.886719 C 675.488281 40.433594 665.949219 29.265625 652.988281 25.597656 L 637.417969 21.113281 L 605.625 -0.0820312 L 563.96875 -0.0820312 C 551.414062 -0.0820312 541.304688 10.109375 541.304688 22.582031 L 541.304688 61.140625 L 540 63.914062 C 531.929688 80.789062 537.308594 100.761719 552.554688 111.195312 Z M 552.554688 111.195312 " fill-opacity="1" fill-rule="nonzero"/></svg>